<mxfile host="65bd71144e">
    <diagram id="bqJGFWPzIaBEPvLrbqu7" name="第 1 页">
        <mxGraphModel dx="628" dy="662" grid="1" gridSize="10" guides="1" tooltips="1" connect="1" arrows="1" fold="1" page="1" pageScale="1" pageWidth="827" pageHeight="1169" math="0" shadow="0">
            <root>
                <mxCell id="0"/>
                <mxCell id="1" parent="0"/>
                <mxCell id="2" value="" style="rounded=0;whiteSpace=wrap;html=1;" vertex="1" parent="1">
                    <mxGeometry x="130" y="90" width="340" height="480" as="geometry"/>
                </mxCell>
                <mxCell id="6" value="1" style="rounded=0;whiteSpace=wrap;html=1;" vertex="1" parent="1">
                    <mxGeometry x="130" y="90" width="340" height="40" as="geometry"/>
                </mxCell>
                <mxCell id="8" value="2" style="rounded=0;whiteSpace=wrap;html=1;" vertex="1" parent="1">
                    <mxGeometry x="130" y="130" width="340" height="40" as="geometry"/>
                </mxCell>
                <mxCell id="9" value="3" style="rounded=0;whiteSpace=wrap;html=1;" vertex="1" parent="1">
                    <mxGeometry x="130" y="170" width="340" height="40" as="geometry"/>
                </mxCell>
                <mxCell id="10" value="4" style="rounded=0;whiteSpace=wrap;html=1;" vertex="1" parent="1">
                    <mxGeometry x="130" y="210" width="340" height="40" as="geometry"/>
                </mxCell>
                <mxCell id="11" value="5" style="rounded=0;whiteSpace=wrap;html=1;" vertex="1" parent="1">
                    <mxGeometry x="130" y="250" width="340" height="40" as="geometry"/>
                </mxCell>
                <mxCell id="13" value="9" style="rounded=0;whiteSpace=wrap;html=1;" vertex="1" parent="1">
                    <mxGeometry x="130" y="410" width="340" height="40" as="geometry"/>
                </mxCell>
                <mxCell id="14" value="8" style="rounded=0;whiteSpace=wrap;html=1;" vertex="1" parent="1">
                    <mxGeometry x="130" y="370" width="340" height="40" as="geometry"/>
                </mxCell>
                <mxCell id="15" value="7" style="rounded=0;whiteSpace=wrap;html=1;" vertex="1" parent="1">
                    <mxGeometry x="130" y="330" width="340" height="40" as="geometry"/>
                </mxCell>
                <mxCell id="16" value="6" style="rounded=0;whiteSpace=wrap;html=1;" vertex="1" parent="1">
                    <mxGeometry x="130" y="290" width="340" height="40" as="geometry"/>
                </mxCell>
                <mxCell id="17" value="11" style="rounded=0;whiteSpace=wrap;html=1;" vertex="1" parent="1">
                    <mxGeometry x="130" y="490" width="340" height="40" as="geometry"/>
                </mxCell>
                <mxCell id="18" value="10" style="rounded=0;whiteSpace=wrap;html=1;" vertex="1" parent="1">
                    <mxGeometry x="130" y="450" width="340" height="40" as="geometry"/>
                </mxCell>
                <mxCell id="19" value="12" style="rounded=0;whiteSpace=wrap;html=1;" vertex="1" parent="1">
                    <mxGeometry x="130" y="530" width="340" height="40" as="geometry"/>
                </mxCell>
                <mxCell id="5" value="" style="rounded=0;whiteSpace=wrap;html=1;fillColor=none;fontColor=#000000;strokeColor=#C73500;strokeWidth=6;" vertex="1" parent="1">
                    <mxGeometry x="130" y="270" width="340" height="210" as="geometry"/>
                </mxCell>
                <mxCell id="20" value="" style="shape=curlyBracket;whiteSpace=wrap;html=1;rounded=1;fillColor=none;size=0;" vertex="1" parent="1">
                    <mxGeometry x="80" y="90" width="20" height="180" as="geometry"/>
                </mxCell>
                <mxCell id="23" value="scrollTop" style="text;whiteSpace=wrap;html=1;" vertex="1" parent="1">
                    <mxGeometry x="20" y="160" width="80" height="40" as="geometry"/>
                </mxCell>
                <mxCell id="24" value="" style="shape=curlyBracket;whiteSpace=wrap;html=1;rounded=1;fillColor=none;" vertex="1" parent="1">
                    <mxGeometry x="70" y="270" width="20" height="210" as="geometry"/>
                </mxCell>
                <mxCell id="25" value="可视区域" style="text;whiteSpace=wrap;html=1;" vertex="1" parent="1">
                    <mxGeometry x="10" y="360" width="80" height="40" as="geometry"/>
                </mxCell>
                <mxCell id="26" value="" style="shape=curlyBracket;whiteSpace=wrap;html=1;rounded=1;flipH=1;fillColor=none;" vertex="1" parent="1">
                    <mxGeometry x="480" y="290" width="20" height="40" as="geometry"/>
                </mxCell>
                <mxCell id="27" value="itemSize" style="text;whiteSpace=wrap;html=1;" vertex="1" parent="1">
                    <mxGeometry x="510" y="290" width="80" height="40" as="geometry"/>
                </mxCell>
                <mxCell id="28" value="" style="shape=curlyBracket;whiteSpace=wrap;html=1;rounded=1;flipH=1;fillColor=none;" vertex="1" parent="1">
                    <mxGeometry x="480" y="250" width="20" height="20" as="geometry"/>
                </mxCell>
                <mxCell id="30" value="scrollTop % itemSize" style="text;whiteSpace=wrap;html=1;" vertex="1" parent="1">
                    <mxGeometry x="500" y="240" width="130" height="40" as="geometry"/>
                </mxCell>
                <mxCell id="32" value="" style="shape=curlyBracket;whiteSpace=wrap;html=1;rounded=1;flipH=1;fillColor=none;" vertex="1" parent="1">
                    <mxGeometry x="480" y="90" width="20" height="160" as="geometry"/>
                </mxCell>
                <mxCell id="33" value="scrollTop - (scrollTop % itemSize)" style="text;whiteSpace=wrap;html=1;" vertex="1" parent="1">
                    <mxGeometry x="500" y="155" width="140" height="30" as="geometry"/>
                </mxCell>
                <mxCell id="35" value="" style="rounded=0;whiteSpace=wrap;html=1;fillColor=none;fontColor=#ffffff;strokeColor=#432D57;strokeWidth=6;" vertex="1" parent="1">
                    <mxGeometry x="130" y="255" width="340" height="235" as="geometry"/>
                </mxCell>
                <mxCell id="36" value="" style="shape=curlyBracket;whiteSpace=wrap;html=1;rounded=1;flipH=1;strokeWidth=1;fillColor=none;" vertex="1" parent="1">
                    <mxGeometry x="540" y="250" width="20" height="240" as="geometry"/>
                </mxCell>
                <mxCell id="37" value="渲染区域" style="text;whiteSpace=wrap;html=1;" vertex="1" parent="1">
                    <mxGeometry x="570" y="350" width="80" height="40" as="geometry"/>
                </mxCell>
            </root>
        </mxGraphModel>
    </diagram>
</mxfile>